<svg width="436" height="239" viewBox="0 0 436 239" fill="none" xmlns="http://www.w3.org/2000/svg">
<g filter="url(#filter0_bd)">
<path d="M196.912 27C203.84 15 221.16 15 228.088 27L275.287 108.75C282.215 120.75 273.555 135.75 259.698 135.75H165.302C151.445 135.75 142.785 120.75 149.713 108.75L196.912 27Z" fill="#FA8543"/>
</g>
<path d="M212.5 71.5329L223.629 92.6677H201.371L212.5 71.5329Z" fill="white"/>
<path d="M152.075 135.75L201.837 51.2111L205.391 57.7141L211.406 69.0943L223.437 92.3967H244.216L222.069 52.024L202.384 18.4252L142.233 121.66C138.952 131.415 145.514 135.208 152.075 135.75Z" fill="#C4C4C4"/>
<path d="M152.075 135.75L201.837 51.2111L205.391 57.7141L211.406 69.0943L223.437 92.3967H244.216L222.069 52.024L202.384 18.4252L142.233 121.66C138.952 131.415 145.514 135.208 152.075 135.75Z" fill="url(#paint0_linear)"/>
<path d="M192.814 109.738L212.5 71.5329L201.837 51.482L152.076 135.75L276.479 135.479C293.43 130.06 275.385 109.738 275.385 109.738H192.814Z" fill="#FF530A"/>
<path d="M44.3168 229L31.9007 186.76H39.1327L48.6047 223.048L57.8208 186.76H64.8608L74.1408 223.112L83.5488 186.76H90.5248L78.1728 229H70.1087L63.3888 203.656L61.2768 193.928H61.2128L59.1007 203.656L52.4447 229H44.3168ZM117.894 196.36C121.008 196.36 123.76 197.021 126.15 198.344C128.539 199.667 130.395 201.587 131.718 204.104C133.083 206.579 133.766 209.544 133.766 213C133.766 216.456 133.083 219.443 131.718 221.96C130.395 224.435 128.539 226.333 126.15 227.656C123.76 228.979 121.008 229.64 117.894 229.64C114.779 229.64 112.027 228.979 109.638 227.656C107.248 226.333 105.371 224.435 104.006 221.96C102.64 219.443 101.958 216.456 101.958 213C101.958 209.544 102.64 206.579 104.006 204.104C105.371 201.587 107.248 199.667 109.638 198.344C112.027 197.021 114.779 196.36 117.894 196.36ZM117.894 201.736C115.078 201.736 112.859 202.717 111.238 204.68C109.616 206.6 108.806 209.373 108.806 213C108.806 216.627 109.616 219.421 111.238 221.384C112.859 223.304 115.078 224.264 117.894 224.264C120.71 224.264 122.907 223.304 124.486 221.384C126.107 219.421 126.918 216.627 126.918 213C126.918 209.373 126.107 206.6 124.486 204.68C122.907 202.717 120.71 201.736 117.894 201.736ZM151.341 229V197H157.165L157.805 202.76C159.554 198.493 162.903 196.36 167.853 196.36C168.493 196.36 169.133 196.424 169.773 196.552C170.413 196.637 170.946 196.787 171.373 197L170.413 203.016C169.943 202.845 169.41 202.717 168.813 202.632C168.258 202.504 167.49 202.44 166.509 202.44C165.143 202.44 163.821 202.803 162.541 203.528C161.303 204.211 160.258 205.277 159.405 206.728C158.594 208.136 158.189 209.907 158.189 212.04V229H151.341ZM217.009 197L204.785 209.544L217.777 229H209.841L199.985 213.96L193.649 220.488V229H186.801V182.6H193.649V212.616L208.881 197H217.009ZM264.561 192.648H240.881V204.872H259.441V210.824H240.881V229H234.033V186.76H264.561V192.648ZM287.814 182.6V220.04C287.814 221.619 288.092 222.707 288.646 223.304C289.201 223.901 290.118 224.2 291.398 224.2C292.166 224.2 292.806 224.157 293.318 224.072C293.873 223.944 294.556 223.731 295.366 223.432L294.598 228.552C293.105 229.277 291.334 229.64 289.286 229.64C286.428 229.64 284.316 228.915 282.95 227.464C281.628 226.013 280.966 223.731 280.966 220.616V182.6H287.814ZM323.944 196.36C327.058 196.36 329.81 197.021 332.2 198.344C334.589 199.667 336.445 201.587 337.768 204.104C339.133 206.579 339.816 209.544 339.816 213C339.816 216.456 339.133 219.443 337.768 221.96C336.445 224.435 334.589 226.333 332.2 227.656C329.81 228.979 327.058 229.64 323.944 229.64C320.829 229.64 318.077 228.979 315.688 227.656C313.298 226.333 311.421 224.435 310.056 221.96C308.69 219.443 308.008 216.456 308.008 213C308.008 209.544 308.69 206.579 310.056 204.104C311.421 201.587 313.298 199.667 315.688 198.344C318.077 197.021 320.829 196.36 323.944 196.36ZM323.944 201.736C321.128 201.736 318.909 202.717 317.288 204.68C315.666 206.6 314.856 209.373 314.856 213C314.856 216.627 315.666 219.421 317.288 221.384C318.909 223.304 321.128 224.264 323.944 224.264C326.76 224.264 328.957 223.304 330.536 221.384C332.157 219.421 332.968 216.627 332.968 213C332.968 209.373 332.157 206.6 330.536 204.68C328.957 202.717 326.76 201.736 323.944 201.736ZM397.157 197H404.581L393.829 229H386.341L378.277 205.256L370.661 229H363.173L352.485 197H359.845L367.141 222.28L375.077 197H381.925L389.861 222.28L397.157 197Z" fill="#483656"/>
<defs>
<filter id="filter0_bd" x="143.275" y="14" width="138.45" height="129.75" filterUnits="userSpaceOnUse" color-interpolation-filters="sRGB">
<feFlood flood-opacity="0" result="BackgroundImageFix"/>
<feGaussianBlur in="BackgroundImage" stdDeviation="2"/>
<feComposite in2="SourceAlpha" operator="in" result="effect1_backgroundBlur"/>
<feColorMatrix in="SourceAlpha" type="matrix" values="0 0 0 0 0 0 0 0 0 0 0 0 0 0 0 0 0 0 127 0"/>
<feOffset dy="4"/>
<feGaussianBlur stdDeviation="2"/>
<feColorMatrix type="matrix" values="0 0 0 0 0 0 0 0 0 0 0 0 0 0 0 0 0 0 0.25 0"/>
<feBlend mode="normal" in2="effect1_backgroundBlur" result="effect2_dropShadow"/>
<feBlend mode="normal" in="SourceGraphic" in2="effect2_dropShadow" result="shape"/>
</filter>
<linearGradient id="paint0_linear" x1="192.541" y1="133.311" x2="192.784" y2="135.75" gradientUnits="userSpaceOnUse">
<stop stop-color="#E7240E"/>
<stop offset="1" stop-color="white" stop-opacity="0"/>
</linearGradient>
</defs>
</svg>
